<svg width="190" height="22" viewBox="0 0 190 22" fill="none" xmlns="http://www.w3.org/2000/svg">
<path d="M39.64 13.1H35.67V17.29H33.92V13.1H29.97V11.48H33.92V7.3H35.67V11.48H39.64V13.1ZM41.7816 8.56C41.8816 7.88 42.0682 7.28333 42.3416 6.77C42.6216 6.25667 42.9716 5.83 43.3916 5.49C43.8116 5.14333 44.2916 4.88333 44.8316 4.71C45.3782 4.53 45.9682 4.44 46.6016 4.44C47.2416 4.44 47.8216 4.53333 48.3416 4.72C48.8682 4.9 49.3182 5.15333 49.6916 5.48C50.0716 5.80667 50.3616 6.19667 50.5616 6.65C50.7682 7.10333 50.8716 7.6 50.8716 8.14C50.8716 8.6 50.8149 9.00667 50.7016 9.36C50.5949 9.70667 50.4382 10.0133 50.2316 10.28C50.0316 10.5467 49.7849 10.77 49.4916 10.95C49.1982 11.13 48.8682 11.28 48.5016 11.4C49.3949 11.66 50.0649 12.0767 50.5116 12.65C50.9582 13.2167 51.1816 13.93 51.1816 14.79C51.1816 15.4833 51.0516 16.1 50.7916 16.64C50.5316 17.18 50.1782 17.6367 49.7316 18.01C49.2916 18.3833 48.7749 18.67 48.1816 18.87C47.5949 19.0633 46.9716 19.16 46.3116 19.16C45.5716 19.16 44.9316 19.0733 44.3916 18.9C43.8516 18.72 43.3849 18.4667 42.9916 18.14C42.6049 17.8067 42.2816 17.4067 42.0216 16.94C41.7616 16.4733 41.5416 15.95 41.3616 15.37L42.2916 14.98C42.5382 14.8733 42.7716 14.8433 42.9916 14.89C43.2182 14.9367 43.3816 15.06 43.4816 15.26C43.5882 15.4733 43.7082 15.7033 43.8416 15.95C43.9749 16.19 44.1449 16.4133 44.3516 16.62C44.5649 16.82 44.8249 16.99 45.1316 17.13C45.4449 17.2633 45.8282 17.33 46.2816 17.33C46.7416 17.33 47.1416 17.2567 47.4816 17.11C47.8282 16.9567 48.1149 16.7633 48.3416 16.53C48.5749 16.29 48.7482 16.0233 48.8616 15.73C48.9749 15.4367 49.0316 15.1467 49.0316 14.86C49.0316 14.5 48.9882 14.17 48.9016 13.87C48.8149 13.5633 48.6449 13.3033 48.3916 13.09C48.1449 12.8767 47.7916 12.71 47.3316 12.59C46.8782 12.4633 46.2816 12.4 45.5416 12.4V10.85C46.1482 10.8433 46.6582 10.7833 47.0716 10.67C47.4916 10.55 47.8249 10.39 48.0716 10.19C48.3249 9.98333 48.5049 9.73667 48.6116 9.45C48.7249 9.16333 48.7816 8.85 48.7816 8.51C48.7816 8.14333 48.7249 7.82 48.6116 7.54C48.4982 7.26 48.3382 7.02667 48.1316 6.84C47.9316 6.64667 47.6916 6.50333 47.4116 6.41C47.1316 6.31667 46.8216 6.27 46.4816 6.27C46.1549 6.27 45.8516 6.31667 45.5716 6.41C45.2982 6.50333 45.0516 6.63333 44.8316 6.8C44.6182 6.96667 44.4382 7.16667 44.2916 7.4C44.1449 7.62667 44.0382 7.87667 43.9716 8.15C43.8782 8.42333 43.7516 8.60667 43.5916 8.7C43.4382 8.79333 43.2116 8.81333 42.9116 8.76L41.7816 8.56ZM58.0031 17.46C58.4365 17.46 58.8231 17.4 59.1631 17.28C59.5031 17.1533 59.7865 16.98 60.0131 16.76C60.2465 16.5333 60.4231 16.2667 60.5431 15.96C60.6631 15.6533 60.7231 15.32 60.7231 14.96C60.7231 14.52 60.6531 14.14 60.5131 13.82C60.3798 13.5 60.1898 13.2367 59.9431 13.03C59.7031 12.8167 59.4165 12.66 59.0831 12.56C58.7498 12.4533 58.3898 12.4 58.0031 12.4C57.6165 12.4 57.2565 12.4533 56.9231 12.56C56.5898 12.66 56.2998 12.8167 56.0531 13.03C55.8131 13.2367 55.6231 13.5 55.4831 13.82C55.3498 14.14 55.2831 14.52 55.2831 14.96C55.2831 15.32 55.3431 15.6533 55.4631 15.96C55.5831 16.2667 55.7565 16.5333 55.9831 16.76C56.2165 16.98 56.5031 17.1533 56.8431 17.28C57.1831 17.4 57.5698 17.46 58.0031 17.46ZM58.0031 6.09C57.6098 6.09 57.2631 6.15 56.9631 6.27C56.6698 6.39 56.4265 6.55 56.2331 6.75C56.0398 6.95 55.8931 7.18667 55.7931 7.46C55.6998 7.72667 55.6531 8.01 55.6531 8.31C55.6531 8.61 55.6931 8.90333 55.7731 9.19C55.8598 9.47667 55.9931 9.73333 56.1731 9.96C56.3598 10.18 56.6031 10.3567 56.9031 10.49C57.2031 10.6233 57.5698 10.69 58.0031 10.69C58.4365 10.69 58.8031 10.6233 59.1031 10.49C59.4031 10.3567 59.6431 10.18 59.8231 9.96C60.0098 9.73333 60.1431 9.47667 60.2231 9.19C60.3098 8.90333 60.3531 8.61 60.3531 8.31C60.3531 8.01 60.3031 7.72667 60.2031 7.46C60.1098 7.18667 59.9631 6.95 59.7631 6.75C59.5698 6.55 59.3265 6.39 59.0331 6.27C58.7398 6.15 58.3965 6.09 58.0031 6.09ZM60.2731 11.49C61.1598 11.7633 61.8231 12.1967 62.2631 12.79C62.7098 13.3833 62.9331 14.12 62.9331 15C62.9331 15.6333 62.8131 16.2067 62.5731 16.72C62.3331 17.2333 61.9965 17.67 61.5631 18.03C61.1298 18.39 60.6098 18.67 60.0031 18.87C59.4031 19.0633 58.7365 19.16 58.0031 19.16C57.2698 19.16 56.5998 19.0633 55.9931 18.87C55.3931 18.67 54.8765 18.39 54.4431 18.03C54.0098 17.67 53.6731 17.2333 53.4331 16.72C53.1931 16.2067 53.0731 15.6333 53.0731 15C53.0731 14.12 53.2931 13.3833 53.7331 12.79C54.1798 12.1967 54.8465 11.7633 55.7331 11.49C55.0131 11.2033 54.4698 10.7867 54.1031 10.24C53.7431 9.69333 53.5631 9.03667 53.5631 8.27C53.5631 7.73 53.6698 7.22667 53.8831 6.76C54.0965 6.29333 54.3965 5.89 54.7831 5.55C55.1765 5.20333 55.6465 4.93333 56.1931 4.74C56.7398 4.54 57.3431 4.44 58.0031 4.44C58.6631 4.44 59.2631 4.54 59.8031 4.74C60.3498 4.93333 60.8165 5.20333 61.2031 5.55C61.5965 5.89 61.8998 6.29333 62.1131 6.76C62.3331 7.22667 62.4431 7.73 62.4431 8.27C62.4431 9.03667 62.2598 9.69333 61.8931 10.24C61.5331 10.7867 60.9931 11.2033 60.2731 11.49ZM74.8547 11.8C74.8547 13.06 74.718 14.15 74.4447 15.07C74.178 15.99 73.808 16.7533 73.3347 17.36C72.8614 17.9667 72.3047 18.4167 71.6647 18.71C71.0247 19.0033 70.3347 19.15 69.5947 19.15C68.8547 19.15 68.1647 19.0033 67.5247 18.71C66.8847 18.4167 66.328 17.9667 65.8547 17.36C65.388 16.7533 65.0214 15.99 64.7547 15.07C64.488 14.15 64.3547 13.06 64.3547 11.8C64.3547 10.54 64.488 9.45 64.7547 8.53C65.0214 7.60333 65.388 6.84 65.8547 6.24C66.328 5.63333 66.8847 5.18333 67.5247 4.89C68.1647 4.59 68.8547 4.44 69.5947 4.44C70.3347 4.44 71.0247 4.59 71.6647 4.89C72.3047 5.18333 72.8614 5.63333 73.3347 6.24C73.808 6.84 74.178 7.60333 74.4447 8.53C74.718 9.45 74.8547 10.54 74.8547 11.8ZM72.6347 11.8C72.6347 10.7333 72.548 9.84667 72.3747 9.14C72.208 8.42667 71.9847 7.85667 71.7047 7.43C71.4247 7.00333 71.1014 6.7 70.7347 6.52C70.368 6.34 69.988 6.25 69.5947 6.25C69.1947 6.25 68.8114 6.34 68.4447 6.52C68.0847 6.7 67.7647 7.00333 67.4847 7.43C67.2047 7.85667 66.9814 8.42667 66.8147 9.14C66.648 9.84667 66.5647 10.7333 66.5647 11.8C66.5647 12.8667 66.648 13.7567 66.8147 14.47C66.9814 15.1767 67.2047 15.7433 67.4847 16.17C67.7647 16.5967 68.0847 16.9 68.4447 17.08C68.8114 17.26 69.1947 17.35 69.5947 17.35C69.988 17.35 70.368 17.26 70.7347 17.08C71.1014 16.9 71.4247 16.5967 71.7047 16.17C71.9847 15.7433 72.208 15.1767 72.3747 14.47C72.548 13.7567 72.6347 12.8667 72.6347 11.8ZM86.1667 17.38C86.6001 17.38 86.9967 17.31 87.3567 17.17C87.7167 17.0233 88.0234 16.8233 88.2767 16.57C88.5367 16.3167 88.7367 16.0167 88.8767 15.67C89.0167 15.3233 89.0867 14.9467 89.0867 14.54C89.0867 14.1 89.0167 13.7067 88.8767 13.36C88.7434 13.0067 88.5501 12.71 88.2967 12.47C88.0501 12.23 87.7501 12.0467 87.3967 11.92C87.0501 11.7867 86.6667 11.72 86.2467 11.72C85.8134 11.72 85.4201 11.7933 85.0667 11.94C84.7201 12.0867 84.4234 12.2867 84.1767 12.54C83.9301 12.7933 83.7401 13.09 83.6067 13.43C83.4734 13.77 83.4067 14.13 83.4067 14.51C83.4067 14.9367 83.4667 15.3267 83.5867 15.68C83.7067 16.0333 83.8834 16.3367 84.1167 16.59C84.3501 16.8367 84.6367 17.03 84.9767 17.17C85.3234 17.31 85.7201 17.38 86.1667 17.38ZM85.3767 9.9C85.2701 10.0333 85.1667 10.16 85.0667 10.28C84.9734 10.4 84.8801 10.52 84.7867 10.64C85.0934 10.4667 85.4301 10.33 85.7967 10.23C86.1634 10.13 86.5567 10.08 86.9767 10.08C87.5367 10.08 88.0734 10.1733 88.5867 10.36C89.1001 10.54 89.5501 10.8133 89.9367 11.18C90.3301 11.54 90.6434 11.99 90.8767 12.53C91.1101 13.0633 91.2267 13.68 91.2267 14.38C91.2267 15.0467 91.1034 15.67 90.8567 16.25C90.6167 16.83 90.2767 17.3367 89.8367 17.77C89.3967 18.1967 88.8667 18.5367 88.2467 18.79C87.6334 19.0367 86.9534 19.16 86.2067 19.16C85.4601 19.16 84.7867 19.04 84.1867 18.8C83.5867 18.56 83.0734 18.2233 82.6467 17.79C82.2267 17.35 81.9034 16.8233 81.6767 16.21C81.4501 15.5967 81.3367 14.9133 81.3367 14.16C81.3367 13.5067 81.4767 12.8233 81.7567 12.11C82.0367 11.3967 82.4701 10.6467 83.0567 9.86L86.5967 5.11C86.7034 4.97 86.8567 4.85 87.0567 4.75C87.2634 4.65 87.4934 4.6 87.7467 4.6H89.6467L85.3767 9.9ZM102.858 4.6V5.55C102.858 5.83 102.828 6.05667 102.768 6.23C102.708 6.40333 102.648 6.55 102.588 6.67L96.8983 18.25C96.7983 18.4633 96.6549 18.6433 96.4683 18.79C96.2883 18.93 96.0483 19 95.7483 19H94.1983L99.9983 7.61C100.105 7.40333 100.212 7.21667 100.318 7.05C100.425 6.88333 100.545 6.72333 100.678 6.57H93.4883C93.3549 6.57 93.2383 6.52 93.1383 6.42C93.0383 6.31333 92.9883 6.19333 92.9883 6.06V4.6H102.858ZM109.37 17.38C109.803 17.38 110.2 17.31 110.56 17.17C110.92 17.0233 111.227 16.8233 111.48 16.57C111.74 16.3167 111.94 16.0167 112.08 15.67C112.22 15.3233 112.29 14.9467 112.29 14.54C112.29 14.1 112.22 13.7067 112.08 13.36C111.947 13.0067 111.753 12.71 111.5 12.47C111.253 12.23 110.953 12.0467 110.6 11.92C110.253 11.7867 109.87 11.72 109.45 11.72C109.017 11.72 108.623 11.7933 108.27 11.94C107.923 12.0867 107.627 12.2867 107.38 12.54C107.133 12.7933 106.943 13.09 106.81 13.43C106.677 13.77 106.61 14.13 106.61 14.51C106.61 14.9367 106.67 15.3267 106.79 15.68C106.91 16.0333 107.087 16.3367 107.32 16.59C107.553 16.8367 107.84 17.03 108.18 17.17C108.527 17.31 108.923 17.38 109.37 17.38ZM108.58 9.9C108.473 10.0333 108.37 10.16 108.27 10.28C108.177 10.4 108.083 10.52 107.99 10.64C108.297 10.4667 108.633 10.33 109 10.23C109.367 10.13 109.76 10.08 110.18 10.08C110.74 10.08 111.277 10.1733 111.79 10.36C112.303 10.54 112.753 10.8133 113.14 11.18C113.533 11.54 113.847 11.99 114.08 12.53C114.313 13.0633 114.43 13.68 114.43 14.38C114.43 15.0467 114.307 15.67 114.06 16.25C113.82 16.83 113.48 17.3367 113.04 17.77C112.6 18.1967 112.07 18.5367 111.45 18.79C110.837 19.0367 110.157 19.16 109.41 19.16C108.663 19.16 107.99 19.04 107.39 18.8C106.79 18.56 106.277 18.2233 105.85 17.79C105.43 17.35 105.107 16.8233 104.88 16.21C104.653 15.5967 104.54 14.9133 104.54 14.16C104.54 13.5067 104.68 12.8233 104.96 12.11C105.24 11.3967 105.673 10.6467 106.26 9.86L109.8 5.11C109.907 4.97 110.06 4.85 110.26 4.75C110.467 4.65 110.697 4.6 110.95 4.6H112.85L108.58 9.9ZM120.971 17.38C121.405 17.38 121.801 17.31 122.161 17.17C122.521 17.0233 122.828 16.8233 123.081 16.57C123.341 16.3167 123.541 16.0167 123.681 15.67C123.821 15.3233 123.891 14.9467 123.891 14.54C123.891 14.1 123.821 13.7067 123.681 13.36C123.548 13.0067 123.355 12.71 123.101 12.47C122.855 12.23 122.555 12.0467 122.201 11.92C121.855 11.7867 121.471 11.72 121.051 11.72C120.618 11.72 120.225 11.7933 119.871 11.94C119.525 12.0867 119.228 12.2867 118.981 12.54C118.735 12.7933 118.545 13.09 118.411 13.43C118.278 13.77 118.211 14.13 118.211 14.51C118.211 14.9367 118.271 15.3267 118.391 15.68C118.511 16.0333 118.688 16.3367 118.921 16.59C119.155 16.8367 119.441 17.03 119.781 17.17C120.128 17.31 120.525 17.38 120.971 17.38ZM120.181 9.9C120.075 10.0333 119.971 10.16 119.871 10.28C119.778 10.4 119.685 10.52 119.591 10.64C119.898 10.4667 120.235 10.33 120.601 10.23C120.968 10.13 121.361 10.08 121.781 10.08C122.341 10.08 122.878 10.1733 123.391 10.36C123.905 10.54 124.355 10.8133 124.741 11.18C125.135 11.54 125.448 11.99 125.681 12.53C125.915 13.0633 126.031 13.68 126.031 14.38C126.031 15.0467 125.908 15.67 125.661 16.25C125.421 16.83 125.081 17.3367 124.641 17.77C124.201 18.1967 123.671 18.5367 123.051 18.79C122.438 19.0367 121.758 19.16 121.011 19.16C120.265 19.16 119.591 19.04 118.991 18.8C118.391 18.56 117.878 18.2233 117.451 17.79C117.031 17.35 116.708 16.8233 116.481 16.21C116.255 15.5967 116.141 14.9133 116.141 14.16C116.141 13.5067 116.281 12.8233 116.561 12.11C116.841 11.3967 117.275 10.6467 117.861 9.86L121.401 5.11C121.508 4.97 121.661 4.85 121.861 4.75C122.068 4.65 122.298 4.6 122.551 4.6H124.451L120.181 9.9ZM137.063 17.37V19H129.213V17.37H132.213V8.35C132.213 8.03 132.223 7.70333 132.243 7.37L129.933 9.32C129.833 9.4 129.73 9.45333 129.623 9.48C129.523 9.5 129.426 9.5 129.333 9.48C129.246 9.46 129.166 9.43 129.093 9.39C129.026 9.34333 128.973 9.29333 128.933 9.24L128.263 8.3L132.603 4.57H134.353V17.37H137.063ZM147.225 9.92C147.572 9.84667 147.902 9.79333 148.215 9.76C148.535 9.72667 148.842 9.71 149.135 9.71C149.888 9.71 150.552 9.82333 151.125 10.05C151.705 10.27 152.188 10.5767 152.575 10.97C152.968 11.3633 153.262 11.8267 153.455 12.36C153.655 12.8867 153.755 13.46 153.755 14.08C153.755 14.8467 153.622 15.5433 153.355 16.17C153.088 16.7967 152.718 17.3333 152.245 17.78C151.772 18.22 151.212 18.56 150.565 18.8C149.925 19.04 149.232 19.16 148.485 19.16C148.045 19.16 147.625 19.1167 147.225 19.03C146.832 18.9433 146.462 18.8267 146.115 18.68C145.768 18.5267 145.448 18.3533 145.155 18.16C144.862 17.96 144.598 17.7533 144.365 17.54L145.025 16.62C145.165 16.42 145.352 16.32 145.585 16.32C145.732 16.32 145.892 16.3733 146.065 16.48C146.238 16.5867 146.438 16.7033 146.665 16.83C146.898 16.95 147.172 17.0633 147.485 17.17C147.798 17.2767 148.172 17.33 148.605 17.33C149.078 17.33 149.502 17.2533 149.875 17.1C150.248 16.9467 150.562 16.7333 150.815 16.46C151.075 16.18 151.272 15.8467 151.405 15.46C151.538 15.0733 151.605 14.65 151.605 14.19C151.605 13.77 151.542 13.3933 151.415 13.06C151.295 12.7267 151.112 12.4433 150.865 12.21C150.625 11.9767 150.322 11.8 149.955 11.68C149.588 11.5533 149.165 11.49 148.685 11.49C148.332 11.49 147.968 11.52 147.595 11.58C147.228 11.64 146.855 11.7333 146.475 11.86L145.135 11.48L146.315 4.6H153.285V5.53C153.285 5.83667 153.188 6.08667 152.995 6.28C152.802 6.47333 152.478 6.57 152.025 6.57H147.805L147.225 9.92ZM162.187 13.68V8.42C162.187 8 162.217 7.54 162.277 7.04L157.437 13.68H162.187ZM166.047 13.68V14.92C166.047 15.04 166.007 15.1433 165.927 15.23C165.853 15.3167 165.74 15.36 165.587 15.36H164.057V19H162.187V15.36H155.957C155.803 15.36 155.67 15.3167 155.557 15.23C155.45 15.1367 155.38 15.0233 155.347 14.89L155.127 13.79L162.037 4.59H164.057V13.68H166.047ZM176.848 17.37V19H168.998V17.37H171.998V8.35C171.998 8.03 172.008 7.70333 172.028 7.37L169.718 9.32C169.618 9.4 169.515 9.45333 169.408 9.48C169.308 9.5 169.211 9.5 169.118 9.48C169.031 9.46 168.951 9.43 168.878 9.39C168.811 9.34333 168.758 9.29333 168.718 9.24L168.048 8.3L172.388 4.57H174.138V17.37H176.848ZM182.03 9.92C182.376 9.84667 182.706 9.79333 183.02 9.76C183.34 9.72667 183.646 9.71 183.94 9.71C184.693 9.71 185.356 9.82333 185.93 10.05C186.51 10.27 186.993 10.5767 187.38 10.97C187.773 11.3633 188.066 11.8267 188.26 12.36C188.46 12.8867 188.56 13.46 188.56 14.08C188.56 14.8467 188.426 15.5433 188.16 16.17C187.893 16.7967 187.523 17.3333 187.05 17.78C186.576 18.22 186.016 18.56 185.37 18.8C184.73 19.04 184.036 19.16 183.29 19.16C182.85 19.16 182.43 19.1167 182.03 19.03C181.636 18.9433 181.266 18.8267 180.92 18.68C180.573 18.5267 180.253 18.3533 179.96 18.16C179.666 17.96 179.403 17.7533 179.17 17.54L179.83 16.62C179.97 16.42 180.156 16.32 180.39 16.32C180.536 16.32 180.696 16.3733 180.87 16.48C181.043 16.5867 181.243 16.7033 181.47 16.83C181.703 16.95 181.976 17.0633 182.29 17.17C182.603 17.2767 182.976 17.33 183.41 17.33C183.883 17.33 184.306 17.2533 184.68 17.1C185.053 16.9467 185.366 16.7333 185.62 16.46C185.88 16.18 186.076 15.8467 186.21 15.46C186.343 15.0733 186.41 14.65 186.41 14.19C186.41 13.77 186.346 13.3933 186.22 13.06C186.1 12.7267 185.916 12.4433 185.67 12.21C185.43 11.9767 185.126 11.8 184.76 11.68C184.393 11.5533 183.97 11.49 183.49 11.49C183.136 11.49 182.773 11.52 182.4 11.58C182.033 11.64 181.66 11.7333 181.28 11.86L179.94 11.48L181.12 4.6H188.09V5.53C188.09 5.83667 187.993 6.08667 187.8 6.28C187.606 6.47333 187.283 6.57 186.83 6.57H182.61L182.03 9.92Z" fill="#3D4A39"/>
<g clip-path="url(#clip0_212_151)">
<path d="M14.6667 0.916668H7.33337C5.81629 0.916668 4.58337 2.14958 4.58337 3.66667V18.3333C4.58337 19.8504 5.81629 21.0833 7.33337 21.0833H14.6667C16.1838 21.0833 17.4167 19.8504 17.4167 18.3333V3.66667C17.4167 2.14958 16.1838 0.916668 14.6667 0.916668ZM12.8334 19.25H9.16671V18.3333H12.8334V19.25ZM15.8125 16.5H6.18754V3.66667H15.8125V16.5Z" fill="#3D4A39"/>
</g>
<defs>
<clipPath id="clip0_212_151">
<rect width="22" height="22" fill="white"/>
</clipPath>
</defs>
</svg>
