<svg width="25" height="16" viewBox="0 0 25 16" fill="none" xmlns="http://www.w3.org/2000/svg">
<path opacity="0.5" d="M12.512 7.968C12.512 9.376 12.24 10.632 11.696 11.736C11.168 12.824 10.44 13.68 9.51203 14.304C8.58403 14.928 7.53603 15.24 6.36803 15.24C5.18403 15.24 4.12803 14.928 3.20003 14.304C2.28803 13.68 1.56003 12.824 1.01603 11.736C0.488031 10.632 0.224031 9.376 0.224031 7.968C0.224031 6.56 0.488031 5.312 1.01603 4.224C1.56003 3.12 2.28803 2.256 3.20003 1.632C4.12803 0.992 5.18403 0.672 6.36803 0.672C7.53603 0.672 8.58403 0.992 9.51203 1.632C10.44 2.256 11.168 3.12 11.696 4.224C12.24 5.312 12.512 6.56 12.512 7.968ZM9.82403 7.968C9.82403 7.008 9.67203 6.168 9.36803 5.448C9.08003 4.712 8.67203 4.144 8.14403 3.744C7.63203 3.328 7.04003 3.12 6.36803 3.12C5.68003 3.12 5.07203 3.328 4.54403 3.744C4.01603 4.144 3.60003 4.712 3.29603 5.448C3.00803 6.168 2.86403 7.008 2.86403 7.968C2.86403 9.408 3.18403 10.576 3.82403 11.472C4.48003 12.352 5.32803 12.792 6.36803 12.792C7.04003 12.792 7.63203 12.592 8.14403 12.192C8.67203 11.792 9.08003 11.232 9.36803 10.512C9.67203 9.776 9.82403 8.928 9.82403 7.968ZM24.4702 12.624V15H15.3022V12.624H18.7102V4.248C18.5342 4.488 18.2142 4.752 17.7502 5.04C17.2862 5.328 16.7822 5.568 16.2382 5.76C15.7102 5.952 15.2382 6.048 14.8222 6.048V3.576C15.1422 3.576 15.5102 3.48 15.9262 3.288C16.3422 3.096 16.7502 2.872 17.1502 2.616C17.5662 2.344 17.9182 2.088 18.2062 1.848C18.4942 1.592 18.6622 1.408 18.7102 1.296H21.4222V12.624H24.4702Z" fill="#282B22"/>
</svg>
