<svg width="26" height="16" viewBox="0 0 26 16" fill="none" xmlns="http://www.w3.org/2000/svg">
<path opacity="0.5" d="M12.512 7.968C12.512 9.376 12.24 10.632 11.696 11.736C11.168 12.824 10.44 13.68 9.512 14.304C8.584 14.928 7.536 15.24 6.368 15.24C5.184 15.24 4.128 14.928 3.2 14.304C2.288 13.68 1.56 12.824 1.016 11.736C0.488 10.632 0.224 9.376 0.224 7.968C0.224 6.56 0.488 5.312 1.016 4.224C1.56 3.12 2.288 2.256 3.2 1.632C4.128 0.992 5.184 0.672 6.368 0.672C7.536 0.672 8.584 0.992 9.512 1.632C10.44 2.256 11.168 3.12 11.696 4.224C12.24 5.312 12.512 6.56 12.512 7.968ZM9.824 7.968C9.824 7.008 9.672 6.168 9.368 5.448C9.08 4.712 8.672 4.144 8.144 3.744C7.632 3.328 7.04 3.12 6.368 3.12C5.68 3.12 5.072 3.328 4.544 3.744C4.016 4.144 3.6 4.712 3.296 5.448C3.008 6.168 2.864 7.008 2.864 7.968C2.864 9.408 3.184 10.576 3.824 11.472C4.48 12.352 5.328 12.792 6.368 12.792C7.04 12.792 7.632 12.592 8.144 12.192C8.672 11.792 9.08 11.232 9.368 10.512C9.672 9.776 9.824 8.928 9.824 7.968ZM14.7022 15C14.7022 14.104 14.8062 13.296 15.0142 12.576C15.2382 11.84 15.6222 11.168 16.1662 10.56C16.7262 9.936 17.5262 9.336 18.5662 8.76C19.3022 8.344 19.9822 7.976 20.6062 7.656C21.2462 7.32 21.7502 6.976 22.1182 6.624C22.5022 6.272 22.6942 5.856 22.6942 5.376C22.6942 4.864 22.4702 4.408 22.0222 4.008C21.5902 3.592 20.9662 3.384 20.1502 3.384C19.2862 3.384 18.5582 3.592 17.9662 4.008C17.3742 4.408 16.9022 4.816 16.5502 5.232L14.8942 3.336C15.1182 3.096 15.4942 2.8 16.0222 2.448C16.5502 2.08 17.1982 1.76 17.9662 1.488C18.7502 1.2 19.6302 1.056 20.6062 1.056C22.1422 1.056 23.3502 1.432 24.2302 2.184C25.1102 2.936 25.5502 3.88 25.5502 5.016C25.5502 5.8 25.3502 6.472 24.9502 7.032C24.5502 7.576 24.0702 8.032 23.5102 8.4C22.9662 8.768 22.4622 9.072 21.9982 9.312C21.1662 9.728 20.4782 10.096 19.9342 10.416C19.4062 10.736 18.9822 11.064 18.6622 11.4C18.3422 11.736 18.0862 12.144 17.8942 12.624H25.8142V15H14.7022Z" fill="#282B22"/>
</svg>
