<svg width="26" height="19" viewBox="0 0 26 19" fill="none" xmlns="http://www.w3.org/2000/svg">
<path opacity="0.5" d="M12.512 7.968C12.512 9.376 12.24 10.632 11.696 11.736C11.168 12.824 10.44 13.68 9.512 14.304C8.584 14.928 7.536 15.24 6.368 15.24C5.184 15.24 4.128 14.928 3.2 14.304C2.288 13.68 1.56 12.824 1.016 11.736C0.488 10.632 0.224 9.376 0.224 7.968C0.224 6.56 0.488 5.312 1.016 4.224C1.56 3.12 2.288 2.256 3.2 1.632C4.128 0.992 5.184 0.672 6.368 0.672C7.536 0.672 8.584 0.992 9.512 1.632C10.44 2.256 11.168 3.12 11.696 4.224C12.24 5.312 12.512 6.56 12.512 7.968ZM9.824 7.968C9.824 7.008 9.672 6.168 9.368 5.448C9.08 4.712 8.672 4.144 8.144 3.744C7.632 3.328 7.04 3.12 6.368 3.12C5.68 3.12 5.072 3.328 4.544 3.744C4.016 4.144 3.6 4.712 3.296 5.448C3.008 6.168 2.864 7.008 2.864 7.968C2.864 9.408 3.184 10.576 3.824 11.472C4.48 12.352 5.328 12.792 6.368 12.792C7.04 12.792 7.632 12.592 8.144 12.192C8.672 11.792 9.08 11.232 9.368 10.512C9.672 9.776 9.824 8.928 9.824 7.968ZM22.5982 9.336C23.6062 9.512 24.4142 9.992 25.0222 10.776C25.6302 11.544 25.9342 12.488 25.9342 13.608C25.9342 14.6 25.6862 15.464 25.1902 16.2C24.6942 16.936 23.9982 17.504 23.1022 17.904C22.2222 18.32 21.1742 18.528 19.9582 18.528C18.7422 18.528 17.6702 18.312 16.7422 17.88C15.8142 17.464 15.0702 16.856 14.5102 16.056L16.1182 14.232C16.5022 14.824 16.9982 15.288 17.6062 15.624C18.2142 15.96 18.9822 16.128 19.9102 16.128C20.9502 16.128 21.7582 15.904 22.3342 15.456C22.9102 15.008 23.1982 14.336 23.1982 13.44C23.1982 12.512 22.8782 11.784 22.2382 11.256C21.5982 10.728 20.6542 10.464 19.4062 10.464H18.7582V8.4H19.4782C20.5502 8.4 21.3742 8.152 21.9502 7.656C22.5262 7.144 22.8142 6.504 22.8142 5.736C22.8142 4.984 22.5502 4.424 22.0222 4.056C21.5102 3.688 20.8542 3.504 20.0542 3.504C19.2382 3.504 18.5182 3.68 17.8942 4.032C17.2702 4.384 16.7742 4.888 16.4062 5.544L14.7502 3.744C15.2142 2.976 15.9502 2.36 16.9582 1.896C17.9822 1.416 19.1022 1.176 20.3182 1.176C21.3742 1.176 22.2942 1.352 23.0782 1.704C23.8782 2.056 24.5022 2.552 24.9502 3.192C25.3982 3.832 25.6222 4.584 25.6222 5.448C25.6222 6.392 25.3502 7.24 24.8062 7.992C24.2622 8.728 23.5262 9.176 22.5982 9.336Z" fill="#282B22"/>
</svg>
