<svg width="19" height="26" viewBox="0 0 19 26" fill="none" xmlns="http://www.w3.org/2000/svg">
<path d="M6.31747 3.1495L6.348 3.22284C6.2708 3.25503 6.1945 3.28812 6.1182 3.32211C4.17566 5.04379 2.72235 7.35755 1.79956 9.80815C1.50333 10.5952 1.26455 11.3438 1.07693 12.0638C1.15503 12.9268 1.35341 13.7398 1.67119 14.5018C2.09309 15.5134 2.72774 16.4418 3.57333 17.2852V17.286C4.41175 18.125 5.33993 18.7519 6.35518 19.1687C7.37043 19.5846 8.47904 19.7921 9.6819 19.7921C10.6289 19.7921 11.5212 19.6588 12.3596 19.3914C8.08138 17.3415 4.74567 15.1717 4.64423 10.9082C5.91712 13.4536 6.6514 14.856 9.39106 16.2262C9.60919 15.8989 9.84169 15.5053 10.0751 15.1977C11.251 13.6361 11.4979 14.2371 14.1361 13.6593C16.3533 13.1737 16.8569 12.1908 17.0149 9.71692C14.9996 7.99524 15.5804 9.18387 14.3381 6.37999C13.5751 4.65831 12.9332 4.517 10.9072 4.08502L11.1137 0.681009C9.28873 1.1121 7.68551 1.98591 6.31658 3.15039L6.31747 3.1495Z" fill="#DDD5C1"/>
<path d="M13.2196 19.7966C12.1253 20.2455 10.9458 20.4691 9.6828 20.4691C8.39466 20.4691 7.19988 20.2438 6.09845 19.793C4.99792 19.3422 3.99704 18.6661 3.09399 17.7636L3.09309 17.7645C2.18466 16.8594 1.50153 15.8586 1.04463 14.7621C0.913567 14.4482 0.801359 14.1271 0.708003 13.7989C0.174793 17.0893 0.681976 19.886 1.39831 23.2489C2.2439 23.8365 3.13258 24.3221 4.06435 24.704C5.78696 25.4106 7.66038 25.7665 9.6819 25.7719V25.771C11.6989 25.771 13.567 25.4186 15.2851 24.7148C16.5894 24.1799 17.8111 23.4412 18.9502 22.4976C17.0131 21.5013 15.0472 20.648 13.2187 19.7975L13.2196 19.7966Z" fill="#AE7B3C"/>
</svg>
